<svg width="700" height="510" viewBox="0 0 700 510" fill="none" xmlns="http://www.w3.org/2000/svg">
<g clip-path="url(#clip0_1310_1755)">
<path d="M407.749 89.9062C420.868 89.9062 431.503 79.2524 431.503 66.1103C431.503 52.9682 420.868 42.3145 407.749 42.3145C394.629 42.3145 383.994 52.9682 383.994 66.1103C383.994 79.2524 394.629 89.9062 407.749 89.9062Z" fill="#F2F2F2"/>
<path d="M592.02 443.065C627.328 416.125 644.193 370.855 633.635 327.67C633.373 326.597 633.096 325.526 632.804 324.458C625.805 298.824 608.488 274.461 583.25 266.27C562.059 259.392 538.928 264.681 516.82 261.946C473.422 256.577 439.775 221.402 416.101 184.572C392.427 147.743 374.232 106.517 342.774 76.0908C290.921 25.9378 206.335 15.1398 142.044 47.7857C77.753 80.4316 36.8004 152.859 38.5469 225.043C40.2935 297.226 83.071 366.238 145.194 402.853C168.016 416.304 194.412 425.833 220.68 422.499C243.473 419.606 264.184 407.337 286.87 403.695C322.537 397.968 357.977 414.123 388.827 432.948C419.676 451.772 449.475 474.086 484.531 482.813C518.571 491.287 560.742 466.93 592.02 443.065Z" fill="#F2F2F2"/>
<path d="M541.29 49.3016C540.516 48.7847 539.733 48.2945 538.959 47.7954C516.585 33.4611 492.604 21.816 467.511 13.1007L461.693 93.5054H424.807V1.36355C422.485 0.882294 420.146 0.427779 417.806 0V93.5054H373.972C349.842 93.5054 326.699 83.9028 309.636 66.8101C292.573 49.7173 282.987 26.5346 282.987 2.3618V2.36172C280.638 2.86971 278.308 3.41335 275.977 3.99263V93.5054H240.275L234.732 16.8349C208.945 26.7418 184.464 39.7699 161.834 55.6292C161.442 55.8965 161.051 56.1728 160.668 56.4401C158.702 57.8215 156.763 59.2296 154.832 60.6556V367.4H260.052L258.192 341.6L247.961 199.942H453.997L443.766 341.6L441.907 367.4H545.961V52.403C544.413 51.3514 542.856 50.3176 541.29 49.3016ZM275.977 176.548H246.271L240.782 100.528H275.977V176.548ZM417.806 176.548H367.914V175.042C367.914 174.318 367.771 173.601 367.495 172.932C367.218 172.263 366.812 171.656 366.3 171.144C365.789 170.633 365.182 170.227 364.514 169.951C363.846 169.675 363.13 169.533 362.407 169.534H340.717C339.995 169.534 339.28 169.676 338.613 169.953C337.945 170.23 337.339 170.635 336.829 171.147C336.318 171.658 335.913 172.266 335.637 172.934C335.361 173.602 335.219 174.319 335.219 175.042V176.548H282.987V100.528H417.806V176.548ZM424.807 176.548V100.528H461.186L455.696 176.548H424.807Z" fill="#3F3D56"/>
<path d="M0 387.043C7.72868 396.217 16.0881 404.838 25.0172 412.843L674.983 413.735C683.912 405.729 692.271 397.108 700 387.934L0 387.043Z" fill="#3F3D56"/>
<path d="M440.763 304.429V380.809C440.763 381.782 441.15 382.715 441.837 383.403C442.524 384.092 443.456 384.479 444.427 384.48H557.418C558.389 384.479 559.321 384.092 560.008 383.403C560.695 382.715 561.081 381.782 561.082 380.809V304.429C561.08 303.456 560.693 302.524 560.006 301.837C559.319 301.15 558.389 300.763 557.418 300.762H444.427C443.456 300.763 442.526 301.15 441.839 301.837C441.152 302.524 440.765 303.456 440.763 304.429Z" fill="#3F3D56"/>
<path d="M443.413 305.378V379.866C443.414 380.386 443.621 380.884 443.988 381.252C444.355 381.62 444.852 381.827 445.372 381.827H556.477C556.996 381.827 557.494 381.62 557.861 381.252C558.228 380.884 558.434 380.386 558.435 379.866V305.378C558.435 304.857 558.229 304.358 557.862 303.989C557.495 303.621 556.997 303.413 556.477 303.412H445.372C444.852 303.413 444.354 303.621 443.987 303.989C443.619 304.358 443.413 304.857 443.413 305.378Z" fill="#512BD4"/>
<path d="M438.4 395.705C438.607 395.965 438.87 396.175 439.17 396.318C439.469 396.462 439.797 396.536 440.129 396.534H561.115C561.446 396.533 561.773 396.459 562.071 396.316C562.37 396.174 562.633 395.966 562.841 395.709C563.05 395.451 563.198 395.15 563.276 394.828C563.354 394.506 563.359 394.171 563.291 393.846L561.413 384.91C561.335 384.546 561.168 384.206 560.926 383.923C560.684 383.64 560.375 383.423 560.027 383.29C559.775 383.191 559.507 383.14 559.237 383.141H442C441.729 383.14 441.461 383.191 441.21 383.29C440.862 383.423 440.553 383.64 440.311 383.923C440.069 384.206 439.901 384.546 439.823 384.91L437.945 393.846C437.879 394.171 437.885 394.506 437.963 394.827C438.042 395.149 438.191 395.449 438.4 395.705Z" fill="#2F2E41"/>
<path d="M555.086 386.988H557.944C558.184 386.988 558.378 386.794 558.378 386.553V385.184C558.378 384.943 558.184 384.749 557.944 384.749H555.086C554.846 384.749 554.652 384.943 554.652 385.184V386.553C554.652 386.794 554.846 386.988 555.086 386.988Z" fill="#3F3D56"/>
<path d="M547.633 386.988H550.49C550.73 386.988 550.925 386.794 550.925 386.553V385.184C550.925 384.943 550.73 384.749 550.49 384.749H547.633C547.393 384.749 547.198 384.943 547.198 385.184V386.553C547.198 386.794 547.393 386.988 547.633 386.988Z" fill="#3F3D56"/>
<path d="M540.181 386.988H543.038C543.278 386.988 543.473 386.794 543.473 386.553V385.184C543.473 384.943 543.278 384.749 543.038 384.749H540.181C539.941 384.749 539.746 384.943 539.746 385.184V386.553C539.746 386.794 539.941 386.988 540.181 386.988Z" fill="#3F3D56"/>
<path d="M532.728 386.988H535.585C535.825 386.988 536.02 386.794 536.02 386.553V385.184C536.02 384.943 535.825 384.749 535.585 384.749H532.728C532.488 384.749 532.293 384.943 532.293 385.184V386.553C532.293 386.794 532.488 386.988 532.728 386.988Z" fill="#3F3D56"/>
<path d="M525.275 386.988H528.133C528.373 386.988 528.567 386.794 528.567 386.553V385.184C528.567 384.943 528.373 384.749 528.133 384.749H525.275C525.036 384.749 524.841 384.943 524.841 385.184V386.553C524.841 386.794 525.036 386.988 525.275 386.988Z" fill="#3F3D56"/>
<path d="M517.822 386.988H520.68C520.92 386.988 521.114 386.794 521.114 386.553V385.184C521.114 384.943 520.92 384.749 520.68 384.749H517.822C517.582 384.749 517.388 384.943 517.388 385.184V386.553C517.388 386.794 517.582 386.988 517.822 386.988Z" fill="#3F3D56"/>
<path d="M510.37 386.988H513.228C513.468 386.988 513.662 386.794 513.662 386.553V385.184C513.662 384.943 513.468 384.749 513.228 384.749H510.37C510.13 384.749 509.936 384.943 509.936 385.184V386.553C509.936 386.794 510.13 386.988 510.37 386.988Z" fill="#3F3D56"/>
<path d="M502.917 386.988H505.775C506.015 386.988 506.209 386.794 506.209 386.553V385.184C506.209 384.943 506.015 384.749 505.775 384.749H502.917C502.677 384.749 502.483 384.943 502.483 385.184V386.553C502.483 386.794 502.677 386.988 502.917 386.988Z" fill="#3F3D56"/>
<path d="M495.465 386.988H498.323C498.562 386.988 498.757 386.794 498.757 386.553V385.184C498.757 384.943 498.562 384.749 498.323 384.749H495.465C495.225 384.749 495.031 384.943 495.031 385.184V386.553C495.031 386.794 495.225 386.988 495.465 386.988Z" fill="#3F3D56"/>
<path d="M488.012 386.988H490.869C491.109 386.988 491.304 386.794 491.304 386.553V385.184C491.304 384.943 491.109 384.749 490.869 384.749H488.012C487.772 384.749 487.577 384.943 487.577 385.184V386.553C487.577 386.794 487.772 386.988 488.012 386.988Z" fill="#3F3D56"/>
<path d="M480.56 386.988H483.417C483.657 386.988 483.852 386.794 483.852 386.553V385.184C483.852 384.943 483.657 384.749 483.417 384.749H480.56C480.32 384.749 480.125 384.943 480.125 385.184V386.553C480.125 386.794 480.32 386.988 480.56 386.988Z" fill="#3F3D56"/>
<path d="M473.106 386.988H475.964C476.204 386.988 476.398 386.794 476.398 386.553V385.184C476.398 384.943 476.204 384.749 475.964 384.749H473.106C472.867 384.749 472.672 384.943 472.672 385.184V386.553C472.672 386.794 472.867 386.988 473.106 386.988Z" fill="#3F3D56"/>
<path d="M465.653 386.988H468.511C468.751 386.988 468.945 386.794 468.945 386.553V385.184C468.945 384.943 468.751 384.749 468.511 384.749H465.653C465.413 384.749 465.219 384.943 465.219 385.184V386.553C465.219 386.794 465.413 386.988 465.653 386.988Z" fill="#3F3D56"/>
<path d="M458.201 386.988H461.059C461.299 386.988 461.493 386.794 461.493 386.553V385.184C461.493 384.943 461.299 384.749 461.059 384.749H458.201C457.961 384.749 457.767 384.943 457.767 385.184V386.553C457.767 386.794 457.961 386.988 458.201 386.988Z" fill="#3F3D56"/>
<path d="M450.749 386.988H453.607C453.847 386.988 454.041 386.794 454.041 386.553V385.184C454.041 384.943 453.847 384.749 453.607 384.749H450.749C450.509 384.749 450.315 384.943 450.315 385.184V386.553C450.315 386.794 450.509 386.988 450.749 386.988Z" fill="#3F3D56"/>
<path d="M443.296 386.988H446.154C446.393 386.988 446.588 386.794 446.588 386.553V385.184C446.588 384.943 446.393 384.749 446.154 384.749H443.296C443.056 384.749 442.862 384.943 442.862 385.184V386.553C442.862 386.794 443.056 386.988 443.296 386.988Z" fill="#3F3D56"/>
<path d="M555.174 390.723H558.031C558.271 390.723 558.466 390.528 558.466 390.288V388.918C558.466 388.678 558.271 388.483 558.031 388.483H555.174C554.934 388.483 554.739 388.678 554.739 388.918V390.288C554.739 390.528 554.934 390.723 555.174 390.723Z" fill="#3F3D56"/>
<path d="M547.721 390.723H550.578C550.818 390.723 551.013 390.528 551.013 390.288V388.918C551.013 388.678 550.818 388.483 550.578 388.483H547.721C547.481 388.483 547.286 388.678 547.286 388.918V390.288C547.286 390.528 547.481 390.723 547.721 390.723Z" fill="#3F3D56"/>
<path d="M540.269 390.723H543.126C543.366 390.723 543.561 390.528 543.561 390.288V388.918C543.561 388.678 543.366 388.483 543.126 388.483H540.269C540.029 388.483 539.834 388.678 539.834 388.918V390.288C539.834 390.528 540.029 390.723 540.269 390.723Z" fill="#3F3D56"/>
<path d="M532.815 390.723H535.673C535.913 390.723 536.107 390.528 536.107 390.288V388.918C536.107 388.678 535.913 388.483 535.673 388.483H532.815C532.576 388.483 532.381 388.678 532.381 388.918V390.288C532.381 390.528 532.576 390.723 532.815 390.723Z" fill="#3F3D56"/>
<path d="M525.363 390.723H528.221C528.461 390.723 528.655 390.528 528.655 390.288V388.918C528.655 388.678 528.461 388.483 528.221 388.483H525.363C525.123 388.483 524.929 388.678 524.929 388.918V390.288C524.929 390.528 525.123 390.723 525.363 390.723Z" fill="#3F3D56"/>
<path d="M517.91 390.723H520.768C521.008 390.723 521.202 390.528 521.202 390.288V388.918C521.202 388.678 521.008 388.483 520.768 388.483H517.91C517.67 388.483 517.476 388.678 517.476 388.918V390.288C517.476 390.528 517.67 390.723 517.91 390.723Z" fill="#3F3D56"/>
<path d="M510.458 390.723H513.316C513.556 390.723 513.75 390.528 513.75 390.288V388.918C513.75 388.678 513.556 388.483 513.316 388.483H510.458C510.218 388.483 510.024 388.678 510.024 388.918V390.288C510.024 390.528 510.218 390.723 510.458 390.723Z" fill="#3F3D56"/>
<path d="M503.005 390.723H505.863C506.102 390.723 506.297 390.528 506.297 390.288V388.918C506.297 388.678 506.102 388.483 505.863 388.483H503.005C502.765 388.483 502.571 388.678 502.571 388.918V390.288C502.571 390.528 502.765 390.723 503.005 390.723Z" fill="#3F3D56"/>
<path d="M495.553 390.723H498.41C498.65 390.723 498.845 390.528 498.845 390.288V388.918C498.845 388.678 498.65 388.483 498.41 388.483H495.553C495.313 388.483 495.118 388.678 495.118 388.918V390.288C495.118 390.528 495.313 390.723 495.553 390.723Z" fill="#3F3D56"/>
<path d="M488.1 390.723H490.957C491.197 390.723 491.392 390.528 491.392 390.288V388.918C491.392 388.678 491.197 388.483 490.957 388.483H488.1C487.86 388.483 487.665 388.678 487.665 388.918V390.288C487.665 390.528 487.86 390.723 488.1 390.723Z" fill="#3F3D56"/>
<path d="M480.647 390.723H483.505C483.745 390.723 483.939 390.528 483.939 390.288V388.918C483.939 388.678 483.745 388.483 483.505 388.483H480.647C480.408 388.483 480.213 388.678 480.213 388.918V390.288C480.213 390.528 480.408 390.723 480.647 390.723Z" fill="#3F3D56"/>
<path d="M473.194 390.723H476.052C476.292 390.723 476.486 390.528 476.486 390.288V388.918C476.486 388.678 476.292 388.483 476.052 388.483H473.194C472.954 388.483 472.76 388.678 472.76 388.918V390.288C472.76 390.528 472.954 390.723 473.194 390.723Z" fill="#3F3D56"/>
<path d="M465.742 390.723H468.6C468.84 390.723 469.034 390.528 469.034 390.288V388.918C469.034 388.678 468.84 388.483 468.6 388.483H465.742C465.502 388.483 465.308 388.678 465.308 388.918V390.288C465.308 390.528 465.502 390.723 465.742 390.723Z" fill="#3F3D56"/>
<path d="M458.289 390.723H461.147C461.387 390.723 461.581 390.528 461.581 390.288V388.918C461.581 388.678 461.387 388.483 461.147 388.483H458.289C458.049 388.483 457.855 388.678 457.855 388.918V390.288C457.855 390.528 458.049 390.723 458.289 390.723Z" fill="#3F3D56"/>
<path d="M450.837 390.723H453.695C453.934 390.723 454.129 390.528 454.129 390.288V388.918C454.129 388.678 453.934 388.483 453.695 388.483H450.837C450.597 388.483 450.403 388.678 450.403 388.918V390.288C450.403 390.528 450.597 390.723 450.837 390.723Z" fill="#3F3D56"/>
<path d="M443.384 390.723H446.241C446.481 390.723 446.676 390.528 446.676 390.288V388.918C446.676 388.678 446.481 388.483 446.241 388.483H443.384C443.144 388.483 442.949 388.678 442.949 388.918V390.288C442.949 390.528 443.144 390.723 443.384 390.723Z" fill="#3F3D56"/>
<path d="M493.317 395.201H522.259C522.499 395.201 522.693 395.006 522.693 394.766V393.397C522.693 393.156 522.499 392.961 522.259 392.961H493.317C493.077 392.961 492.883 393.156 492.883 393.397V394.766C492.883 395.006 493.077 395.201 493.317 395.201Z" fill="#3F3D56"/>
<path d="M462.653 319.709H460.123C459.356 319.709 458.734 320.332 458.734 321.1C458.734 321.869 459.356 322.491 460.123 322.491H462.653C463.42 322.491 464.042 321.869 464.042 321.1C464.042 320.332 463.42 319.709 462.653 319.709Z" fill="white"/>
<path d="M491.588 319.709H489.058C488.291 319.709 487.669 320.332 487.669 321.1C487.669 321.869 488.291 322.491 489.058 322.491H491.588C492.355 322.491 492.977 321.869 492.977 321.1C492.977 320.332 492.355 319.709 491.588 319.709Z" fill="white"/>
<path d="M499.786 319.709H497.256C496.489 319.709 495.867 320.332 495.867 321.1C495.867 321.869 496.489 322.491 497.256 322.491H499.786C500.553 322.491 501.175 321.869 501.175 321.1C501.175 320.332 500.553 319.709 499.786 319.709Z" fill="white"/>
<path d="M483.718 319.477H467.994C467.227 319.477 466.605 320.099 466.605 320.868C466.605 321.636 467.227 322.259 467.994 322.259H483.718C484.485 322.259 485.107 321.636 485.107 320.868C485.107 320.099 484.485 319.477 483.718 319.477Z" fill="white"/>
<path d="M522.297 319.477H506.573C505.806 319.477 505.185 320.099 505.185 320.868C505.185 321.636 505.806 322.259 506.573 322.259H522.297C523.064 322.259 523.686 321.636 523.686 320.868C523.686 320.099 523.064 319.477 522.297 319.477Z" fill="white"/>
<path d="M470.369 325.988H467.839C467.072 325.988 466.45 326.611 466.45 327.38C466.45 328.148 467.072 328.771 467.839 328.771H470.369C471.136 328.771 471.758 328.148 471.758 327.38C471.758 326.611 471.136 325.988 470.369 325.988Z" fill="white"/>
<path d="M499.304 325.988H496.774C496.007 325.988 495.385 326.611 495.385 327.38C495.385 328.148 496.007 328.771 496.774 328.771H499.304C500.071 328.771 500.692 328.148 500.692 327.38C500.692 326.611 500.071 325.988 499.304 325.988Z" fill="white"/>
<path d="M507.502 325.988H504.972C504.205 325.988 503.583 326.611 503.583 327.38C503.583 328.148 504.205 328.771 504.972 328.771H507.502C508.269 328.771 508.891 328.148 508.891 327.38C508.891 326.611 508.269 325.988 507.502 325.988Z" fill="white"/>
<path d="M491.434 325.758H475.71C474.943 325.758 474.321 326.381 474.321 327.149C474.321 327.917 474.943 328.54 475.71 328.54H491.434C492.201 328.54 492.823 327.917 492.823 327.149C492.823 326.381 492.201 325.758 491.434 325.758Z" fill="white"/>
<path d="M530.013 325.758H514.289C513.522 325.758 512.9 326.381 512.9 327.149C512.9 327.917 513.522 328.54 514.289 328.54H530.013C530.78 328.54 531.402 327.917 531.402 327.149C531.402 326.381 530.78 325.758 530.013 325.758Z" fill="white"/>
<path d="M478.086 332.27H475.556C474.789 332.27 474.167 332.892 474.167 333.661C474.167 334.429 474.789 335.052 475.556 335.052H478.086C478.853 335.052 479.475 334.429 479.475 333.661C479.475 332.892 478.853 332.27 478.086 332.27Z" fill="white"/>
<path d="M507.019 332.27H504.489C503.722 332.27 503.101 332.892 503.101 333.661C503.101 334.429 503.722 335.052 504.489 335.052H507.019C507.786 335.052 508.408 334.429 508.408 333.661C508.408 332.892 507.786 332.27 507.019 332.27Z" fill="white"/>
<path d="M515.218 332.27H512.688C511.921 332.27 511.299 332.892 511.299 333.661C511.299 334.429 511.921 335.052 512.688 335.052H515.218C515.985 335.052 516.606 334.429 516.606 333.661C516.606 332.892 515.985 332.27 515.218 332.27Z" fill="white"/>
<path d="M499.15 332.037H483.426C482.659 332.037 482.037 332.66 482.037 333.428C482.037 334.197 482.659 334.82 483.426 334.82H499.15C499.917 334.82 500.538 334.197 500.538 333.428C500.538 332.66 499.917 332.037 499.15 332.037Z" fill="white"/>
<path d="M537.729 332.037H522.005C521.238 332.037 520.616 332.66 520.616 333.428C520.616 334.197 521.238 334.82 522.005 334.82H537.729C538.496 334.82 539.118 334.197 539.118 333.428C539.118 332.66 538.496 332.037 537.729 332.037Z" fill="white"/>
<path d="M485.802 338.549H483.272C482.505 338.549 481.883 339.172 481.883 339.94C481.883 340.708 482.505 341.331 483.272 341.331H485.802C486.569 341.331 487.19 340.708 487.19 339.94C487.19 339.172 486.569 338.549 485.802 338.549Z" fill="white"/>
<path d="M514.735 338.549H512.205C511.438 338.549 510.816 339.172 510.816 339.94C510.816 340.708 511.438 341.331 512.205 341.331H514.735C515.502 341.331 516.124 340.708 516.124 339.94C516.124 339.172 515.502 338.549 514.735 338.549Z" fill="white"/>
<path d="M522.933 338.549H520.403C519.636 338.549 519.015 339.172 519.015 339.94C519.015 340.708 519.636 341.331 520.403 341.331H522.933C523.7 341.331 524.322 340.708 524.322 339.94C524.322 339.172 523.7 338.549 522.933 338.549Z" fill="white"/>
<path d="M506.866 338.316H491.142C490.375 338.316 489.753 338.939 489.753 339.708C489.753 340.476 490.375 341.099 491.142 341.099H506.866C507.633 341.099 508.254 340.476 508.254 339.708C508.254 338.939 507.633 338.316 506.866 338.316Z" fill="white"/>
<path d="M491.588 363.521H489.058C488.291 363.521 487.669 364.144 487.669 364.913C487.669 365.681 488.291 366.304 489.058 366.304H491.588C492.355 366.304 492.977 365.681 492.977 364.913C492.977 364.144 492.355 363.521 491.588 363.521Z" fill="white"/>
<path d="M499.786 363.521H497.256C496.489 363.521 495.867 364.144 495.867 364.913C495.867 365.681 496.489 366.304 497.256 366.304H499.786C500.553 366.304 501.175 365.681 501.175 364.913C501.175 364.144 500.553 363.521 499.786 363.521Z" fill="white"/>
<path d="M522.297 363.754H506.573C505.806 363.754 505.185 364.377 505.185 365.145C505.185 365.914 505.806 366.536 506.573 366.536H522.297C523.064 366.536 523.686 365.914 523.686 365.145C523.686 364.377 523.064 363.754 522.297 363.754Z" fill="white"/>
<path d="M462.653 363.521H460.123C459.356 363.521 458.734 364.144 458.734 364.913C458.734 365.681 459.356 366.304 460.123 366.304H462.653C463.42 366.304 464.042 365.681 464.042 364.913C464.042 364.144 463.42 363.521 462.653 363.521Z" fill="white"/>
<path d="M483.718 363.754H467.994C467.227 363.754 466.605 364.377 466.605 365.145C466.605 365.914 467.227 366.536 467.994 366.536H483.718C484.485 366.536 485.107 365.914 485.107 365.145C485.107 364.377 484.485 363.754 483.718 363.754Z" fill="white"/>
<path d="M470.369 357.24H467.839C467.072 357.24 466.45 357.863 466.45 358.631C466.45 359.4 467.072 360.023 467.839 360.023H470.369C471.136 360.023 471.758 359.4 471.758 358.631C471.758 357.863 471.136 357.24 470.369 357.24Z" fill="white"/>
<path d="M499.304 357.24H496.774C496.007 357.24 495.385 357.863 495.385 358.631C495.385 359.4 496.007 360.023 496.774 360.023H499.304C500.071 360.023 500.692 359.4 500.692 358.631C500.692 357.863 500.071 357.24 499.304 357.24Z" fill="white"/>
<path d="M507.502 357.24H504.972C504.205 357.24 503.583 357.863 503.583 358.631C503.583 359.4 504.205 360.023 504.972 360.023H507.502C508.269 360.023 508.891 359.4 508.891 358.631C508.891 357.863 508.269 357.24 507.502 357.24Z" fill="white"/>
<path d="M491.434 357.473H475.71C474.943 357.473 474.321 358.096 474.321 358.864C474.321 359.632 474.943 360.255 475.71 360.255H491.434C492.201 360.255 492.823 359.632 492.823 358.864C492.823 358.096 492.201 357.473 491.434 357.473Z" fill="white"/>
<path d="M478.086 350.961H475.556C474.789 350.961 474.167 351.584 474.167 352.352C474.167 353.121 474.789 353.743 475.556 353.743H478.086C478.853 353.743 479.475 353.121 479.475 352.352C479.475 351.584 478.853 350.961 478.086 350.961Z" fill="white"/>
<path d="M507.019 350.961H504.489C503.722 350.961 503.101 351.584 503.101 352.352C503.101 353.121 503.722 353.743 504.489 353.743H507.019C507.786 353.743 508.408 353.121 508.408 352.352C508.408 351.584 507.786 350.961 507.019 350.961Z" fill="white"/>
<path d="M515.218 350.961H512.688C511.921 350.961 511.299 351.584 511.299 352.352C511.299 353.121 511.921 353.743 512.688 353.743H515.218C515.985 353.743 516.606 353.121 516.606 352.352C516.606 351.584 515.985 350.961 515.218 350.961Z" fill="white"/>
<path d="M499.15 351.193H483.426C482.659 351.193 482.037 351.816 482.037 352.585C482.037 353.353 482.659 353.976 483.426 353.976H499.15C499.917 353.976 500.538 353.353 500.538 352.585C500.538 351.816 499.917 351.193 499.15 351.193Z" fill="white"/>
<path d="M485.802 344.682H483.272C482.505 344.682 481.883 345.305 481.883 346.073C481.883 346.841 482.505 347.464 483.272 347.464H485.802C486.569 347.464 487.19 346.841 487.19 346.073C487.19 345.305 486.569 344.682 485.802 344.682Z" fill="white"/>
<path d="M514.735 344.682H512.205C511.438 344.682 510.816 345.305 510.816 346.073C510.816 346.841 511.438 347.464 512.205 347.464H514.735C515.502 347.464 516.124 346.841 516.124 346.073C516.124 345.305 515.502 344.682 514.735 344.682Z" fill="white"/>
<path d="M522.933 344.682H520.403C519.636 344.682 519.015 345.305 519.015 346.073C519.015 346.841 519.636 347.464 520.403 347.464H522.933C523.7 347.464 524.322 346.841 524.322 346.073C524.322 345.305 523.7 344.682 522.933 344.682Z" fill="white"/>
<path d="M506.866 344.912H491.142C490.375 344.912 489.753 345.535 489.753 346.303C489.753 347.072 490.375 347.695 491.142 347.695H506.866C507.633 347.695 508.254 347.072 508.254 346.303C508.254 345.535 507.633 344.912 506.866 344.912Z" fill="white"/>
<path d="M170.538 300.765V392.168H234.46V300.765C234.461 300.108 234.252 299.468 233.863 298.938C233.473 298.409 232.925 298.018 232.298 297.824C232.003 297.727 231.693 297.678 231.382 297.682H173.625C173.22 297.681 172.819 297.76 172.445 297.915C172.071 298.069 171.73 298.296 171.444 298.583C171.157 298.869 170.929 299.209 170.774 299.584C170.619 299.958 170.538 300.36 170.538 300.765ZM195.484 332.171C195.501 330.37 196.227 328.647 197.505 327.379C198.783 326.111 200.509 325.399 202.308 325.399C204.107 325.399 205.833 326.111 207.111 327.379C208.388 328.647 209.115 330.37 209.131 332.171V342.777C209.122 344.584 208.399 346.313 207.121 347.588C205.842 348.862 204.111 349.578 202.308 349.578C200.504 349.578 198.774 348.862 197.495 347.588C196.216 346.313 195.493 344.584 195.484 342.777V332.171Z" fill="#2F2E41"/>
<path d="M170.343 389.244V398.058C170.344 398.515 170.525 398.952 170.847 399.276C171.168 399.6 171.604 399.783 172.06 399.787H232.939C233.395 399.785 233.832 399.602 234.154 399.278C234.476 398.954 234.656 398.515 234.656 398.058V389.244H170.343Z" fill="#3F3D56"/>
<path d="M69.9805 163.057V329.944C69.9822 332.071 70.8263 334.11 72.3275 335.614C73.8287 337.118 75.8643 337.963 77.9874 337.965H324.867C326.99 337.963 329.026 337.118 330.527 335.614C332.028 334.11 332.872 332.071 332.874 329.944V163.057C332.869 160.932 332.024 158.896 330.523 157.394C329.022 155.892 326.988 155.048 324.867 155.045H77.9874C75.8662 155.048 73.8325 155.892 72.3318 157.394C70.831 158.896 69.9855 160.932 69.9805 163.057Z" fill="#3F3D56"/>
<path d="M75.7725 165.132V327.884C75.7744 329.02 76.2259 330.109 77.028 330.913C77.8301 331.716 78.9174 332.168 80.0517 332.17H322.812C323.947 332.168 325.034 331.716 325.836 330.913C326.638 330.109 327.09 329.02 327.092 327.884V165.132C327.092 163.994 326.641 162.903 325.839 162.097C325.037 161.292 323.948 160.838 322.812 160.836H80.0517C78.916 160.838 77.8276 161.292 77.0254 162.097C76.2232 162.903 75.7726 163.994 75.7725 165.132Z" fill="white"/>
<g clip-path="url(#clip1_1310_1755)">
<path d="M233.915 213.876C232.952 219.917 229.88 225.42 225.245 229.407C220.61 233.393 214.713 235.604 208.603 235.646C207.366 235.694 206.126 235.618 204.903 235.421C202.346 234.987 200.015 233.687 198.299 231.74C196.583 229.793 195.586 227.315 195.474 224.721C195.499 221.828 196.66 219.061 198.705 217.017C200.75 214.973 203.516 213.816 206.406 213.795C209.296 213.775 212.078 214.893 214.152 216.908C216.226 218.922 217.425 221.673 217.492 224.565C217.538 226.392 216.747 227.995 215.122 228.041C213.386 228.041 212.573 226.801 212.573 225.13V220.486C212.573 219.735 212.277 219.014 211.749 218.48C211.221 217.947 210.503 217.644 209.753 217.638H205.864C204.733 217.631 203.618 217.907 202.621 218.442C201.624 218.976 200.777 219.753 200.157 220.7C199.537 221.647 199.164 222.735 199.072 223.863C198.98 224.992 199.172 226.126 199.63 227.161C200.089 228.196 200.799 229.1 201.696 229.789C202.593 230.479 203.648 230.933 204.766 231.109C205.883 231.285 207.027 231.178 208.092 230.797C209.157 230.417 210.11 229.775 210.864 228.931L211 228.728L211.136 228.953C211.604 229.589 212.222 230.1 212.934 230.44C213.646 230.779 214.432 230.937 215.22 230.9C216.624 230.798 217.933 230.15 218.868 229.095C219.802 228.039 220.287 226.66 220.219 225.252C220.233 224.043 220.098 222.838 219.817 221.662C219.096 218.342 217.172 215.406 214.417 213.421C211.662 211.436 208.271 210.543 204.897 210.913C201.523 211.283 198.405 212.89 196.145 215.425C193.884 217.96 192.641 221.242 192.655 224.641C192.698 228.244 194.135 231.69 196.663 234.254C199.191 236.819 202.614 238.303 206.212 238.394C206.212 238.394 207.231 238.487 208.379 238.46C213.96 238.425 219.414 236.796 224.102 233.764C224.169 233.718 224.236 233.811 224.192 233.878C221.909 236.339 219.118 238.273 216.013 239.544C212.908 240.815 209.564 241.394 206.213 241.239C204.022 241.278 201.846 240.874 199.816 240.048C197.785 239.223 195.943 237.995 194.4 236.438C192.857 234.88 191.645 233.026 190.837 230.987C190.029 228.948 189.643 226.766 189.7 224.574C189.701 221.959 190.311 219.381 191.482 217.044C192.653 214.707 194.352 212.676 196.444 211.112C199.256 209.039 202.654 207.916 206.146 207.905H211.365C213.404 207.904 215.42 207.477 217.285 206.653C219.15 205.829 220.823 204.625 222.198 203.117C222.227 203.085 222.266 203.063 222.308 203.054C222.351 203.045 222.395 203.049 222.435 203.067C222.474 203.084 222.508 203.114 222.53 203.151C222.552 203.189 222.562 203.232 222.559 203.276C222.337 205.624 221.556 207.885 220.281 209.869C220.262 209.903 220.254 209.943 220.257 209.982C220.26 210.021 220.274 210.058 220.298 210.09C220.322 210.121 220.354 210.144 220.391 210.157C220.428 210.171 220.468 210.173 220.506 210.164C222.915 209.619 225.163 208.515 227.069 206.942C228.974 205.369 230.484 203.37 231.478 201.106C231.503 201.066 231.538 201.032 231.579 201.008C231.621 200.985 231.668 200.973 231.715 200.973C231.763 200.973 231.81 200.985 231.852 201.008C231.893 201.032 231.928 201.066 231.953 201.106C233.998 205.029 234.688 209.519 233.915 213.876ZM206.199 220.428C205.396 220.427 204.611 220.666 203.943 221.112C203.275 221.559 202.755 222.193 202.448 222.936C202.14 223.679 202.06 224.496 202.217 225.284C202.373 226.073 202.76 226.797 203.328 227.366C203.895 227.934 204.619 228.321 205.406 228.478C206.194 228.635 207.01 228.554 207.752 228.247C208.494 227.939 209.128 227.418 209.574 226.75C210.02 226.081 210.258 225.295 210.258 224.491V220.697C210.254 220.625 210.224 220.556 210.172 220.505C210.121 220.453 210.053 220.423 209.98 220.419L206.199 220.428Z" fill="#512BD4"/>
</g>
<path d="M120.824 399.19C121.071 399.501 121.385 399.751 121.743 399.922C122.1 400.094 122.492 400.182 122.888 400.18H267.315C267.71 400.179 268.1 400.09 268.456 399.92C268.813 399.75 269.127 399.502 269.376 399.194C269.625 398.887 269.802 398.528 269.895 398.144C269.988 397.759 269.994 397.359 269.913 396.971L267.671 386.304C267.578 385.868 267.378 385.464 267.089 385.126C266.8 384.788 266.431 384.528 266.016 384.37C265.716 384.252 265.396 384.191 265.073 384.191H125.121C124.798 384.191 124.479 384.252 124.178 384.37C123.763 384.528 123.394 384.788 123.105 385.126C122.816 385.464 122.616 385.868 122.523 386.304L120.281 396.971C120.202 397.358 120.209 397.758 120.303 398.142C120.397 398.526 120.575 398.884 120.824 399.19Z" fill="#2F2E41"/>
<path d="M314.934 183.258H87.7839C87.5478 183.253 87.3231 183.155 87.158 182.986C86.9928 182.817 86.9004 182.589 86.9004 182.353C86.9004 182.116 86.9928 181.889 87.158 181.719C87.3231 181.55 87.5478 181.453 87.7839 181.447H314.934C315.17 181.453 315.395 181.55 315.56 181.719C315.725 181.889 315.818 182.116 315.818 182.353C315.818 182.589 315.725 182.817 315.56 182.986C315.395 183.155 315.17 183.253 314.934 183.258Z" fill="#3F3D56"/>
<path d="M103.246 176.827C106.17 176.827 108.54 174.4 108.54 171.406C108.54 168.412 106.17 165.984 103.246 165.984C100.322 165.984 97.9521 168.412 97.9521 171.406C97.9521 174.4 100.322 176.827 103.246 176.827Z" fill="#3F3D56"/>
<path d="M121.534 176.827C124.458 176.827 126.828 174.4 126.828 171.406C126.828 168.412 124.458 165.984 121.534 165.984C118.61 165.984 116.24 168.412 116.24 171.406C116.24 174.4 118.61 176.827 121.534 176.827Z" fill="#3F3D56"/>
<path d="M139.821 176.827C142.745 176.827 145.115 174.4 145.115 171.406C145.115 168.412 142.745 165.984 139.821 165.984C136.897 165.984 134.527 168.412 134.527 171.406C134.527 174.4 136.897 176.827 139.821 176.827Z" fill="#3F3D56"/>
<path d="M303.921 167.324H290.932C290.675 167.33 290.431 167.437 290.252 167.621C290.072 167.805 289.972 168.052 289.972 168.309C289.972 168.567 290.072 168.814 290.252 168.998C290.431 169.182 290.675 169.289 290.932 169.295H303.921C304.179 169.291 304.426 169.186 304.607 169.001C304.789 168.817 304.89 168.568 304.89 168.309C304.89 168.051 304.789 167.802 304.607 167.618C304.426 167.433 304.179 167.328 303.921 167.324Z" fill="#3F3D56"/>
<path d="M303.921 171.023H290.932C290.675 171.029 290.431 171.135 290.251 171.32C290.071 171.504 289.971 171.751 289.971 172.009C289.971 172.266 290.071 172.514 290.251 172.698C290.431 172.882 290.675 172.988 290.932 172.994H303.921C304.18 172.991 304.427 172.886 304.609 172.701C304.791 172.517 304.893 172.268 304.893 172.009C304.893 171.749 304.791 171.501 304.609 171.316C304.427 171.132 304.18 171.027 303.921 171.023Z" fill="#3F3D56"/>
<path d="M303.921 174.723H290.932C290.675 174.729 290.431 174.835 290.252 175.019C290.072 175.203 289.972 175.45 289.972 175.708C289.972 175.965 290.072 176.212 290.252 176.397C290.431 176.581 290.675 176.687 290.932 176.693H303.921C304.179 176.689 304.426 176.584 304.607 176.4C304.789 176.215 304.89 175.967 304.89 175.708C304.89 175.449 304.789 175.2 304.607 175.016C304.426 174.832 304.179 174.726 303.921 174.723Z" fill="#3F3D56"/>
<path d="M617.063 393.113C617.455 394.256 618.198 395.245 619.187 395.939C620.175 396.632 621.357 396.994 622.564 396.973L646.132 396.365C647.348 396.341 648.523 395.924 649.482 395.176C650.441 394.428 651.132 393.389 651.453 392.215L654.788 356.489C655.972 357.026 657.26 357.291 658.559 357.265C659.687 357.236 660.799 356.986 661.831 356.527C662.862 356.068 663.794 355.41 664.571 354.591C665.349 353.771 665.958 352.807 666.364 351.751C666.77 350.696 666.964 349.571 666.936 348.441C666.907 347.311 666.657 346.197 666.199 345.163C665.741 344.13 665.084 343.197 664.266 342.418C663.448 341.639 662.485 341.028 661.432 340.622C660.379 340.216 659.256 340.021 658.127 340.05C657.608 340.048 657.09 340.102 656.583 340.21C656.031 339.612 655.36 339.136 654.613 338.813C653.866 338.491 653.06 338.328 652.247 338.336L615.993 339.274C615.692 339.285 615.393 339.322 615.098 339.385C614.303 339.534 613.549 339.851 612.887 340.316C612.224 340.781 611.669 341.382 611.258 342.08C610.848 342.778 610.591 343.556 610.505 344.362C610.42 345.167 610.508 345.982 610.763 346.751L617.063 393.113ZM655.472 354.063L657.846 345.549C658.116 344.566 658.122 343.529 657.864 342.542C657.979 342.542 658.081 342.487 658.196 342.487C659.823 342.453 661.397 343.067 662.573 344.194C663.749 345.321 664.431 346.87 664.469 348.5C664.507 350.13 663.898 351.708 662.776 352.89C661.654 354.071 660.111 354.758 658.484 354.801C657.432 354.833 656.39 354.578 655.472 354.063Z" fill="#2F2E41"/>
<path d="M637.821 362.899L637.856 362.815C638.099 362.255 638.109 361.621 637.883 361.054C637.656 360.487 637.212 360.032 636.649 359.79L636.115 359.562L631.024 371.282C628.711 370.781 622.437 368.905 622.213 368.351C622.495 367.64 628.629 365.31 628.629 365.31L629.944 362.52C629.944 362.52 619.865 364.808 619.865 368.356C619.865 370.689 626.481 373.082 629.899 373.897C629.725 374.441 629.76 375.03 629.998 375.55C630.236 376.069 630.66 376.482 631.187 376.708L631.713 376.938L636.693 365.514C638.865 365.963 645.412 367.923 645.633 368.476C645.349 369.187 639.218 370.869 639.218 370.869L639.559 373.67C639.559 373.67 648 372.019 648 368.471C647.984 366.107 641.195 363.68 637.821 362.899Z" fill="white"/>
<path d="M636.767 371.059C635.687 371.059 635.071 371.615 635.071 372.592C635.071 373.569 635.687 374.144 636.767 374.144C637.848 374.144 638.426 373.569 638.426 372.592C638.426 371.615 637.827 371.059 636.767 371.059Z" fill="white"/>
<path d="M615.098 339.384C615.87 343.808 624.554 346.918 634.996 346.378C644.597 345.935 652.448 342.557 653.887 338.554C653.354 338.397 652.801 338.323 652.246 338.335L615.992 339.273C615.691 339.284 615.392 339.321 615.098 339.384Z" fill="#3F3D56"/>
<path d="M228.499 259.199H189.184C187.58 259.199 186.28 260.502 186.28 262.108V265.956C186.28 267.563 187.58 268.865 189.184 268.865H228.499C230.103 268.865 231.403 267.563 231.403 265.956V262.108C231.403 260.502 230.103 259.199 228.499 259.199Z" fill="#512BD4"/>
<path d="M251.415 278.529H166.268C164.664 278.529 163.364 279.832 163.364 281.438V285.286C163.364 286.893 164.664 288.195 166.268 288.195H251.415C253.019 288.195 254.319 286.893 254.319 285.286V281.438C254.319 279.832 253.019 278.529 251.415 278.529Z" fill="#E6E6E6"/>
<path d="M251.415 297.861H166.268C164.664 297.861 163.364 299.164 163.364 300.77V304.618C163.364 306.225 164.664 307.527 166.268 307.527H251.415C253.019 307.527 254.319 306.225 254.319 304.618V300.77C254.319 299.164 253.019 297.861 251.415 297.861Z" fill="#E6E6E6"/>
<path d="M258.633 335.847L258.826 336.457L258.836 336.478L264.641 354.157L271.319 374.531L283.883 412.819L284.005 418.766V418.786L284.939 466.63L282.351 473.117L285.264 483.751C285.264 483.751 283.924 467.676 276.738 476.907C272.669 482.153 267.909 487.521 264.002 492.554C269.695 494.862 275.48 496.949 281.356 498.817C282.625 499.223 283.904 499.61 285.182 499.996C285.456 500.077 285.73 500.158 286.004 500.24C305.483 506.01 325.621 509.253 345.924 509.888C346.979 509.918 348.014 509.939 349.019 509.959C349.374 509.969 349.719 509.979 350.064 509.979C351.201 509.99 352.328 510 353.464 510C355.758 510 358.041 509.966 360.315 509.898C377.141 509.423 393.869 507.157 410.217 503.137C410.105 496.377 409.801 488.477 409.364 480.039C409.161 475.901 404.605 471.418 404.331 467.087C404.138 463.833 408.228 460.773 408.015 457.469C406.634 437.126 404.909 444.935 403.63 430.529C403.498 429.116 403.377 427.764 403.265 426.472C402.443 417.221 401.875 411.436 401.875 411.436L407.335 376.961L415.911 322.834L415.251 321.746L414.51 321.38L369.276 298.953L366.82 292.649C366.105 290.834 364.863 289.274 363.255 288.17C361.647 287.067 359.747 286.471 357.798 286.458L328.001 286.336C326.454 286.329 324.929 286.692 323.55 287.394C322.171 288.095 320.98 289.117 320.074 290.372L312.006 301.566L258.633 335.847Z" fill="#3F3D56"/>
<path d="M290.755 404.3L284.006 418.767L279.398 428.649L271.472 470.22L267.504 474.439L264.104 459.503L228.519 467.418C227.352 460.922 228.207 467.638 227.486 460.511C227.689 460.308 227.902 460.104 228.116 459.901C228.684 459.372 229.161 458.874 229.151 458.396C228.745 433.814 229.963 391.978 240.132 366.633C241.725 362.494 243.825 358.571 246.384 354.951C246.587 354.677 246.779 354.402 246.972 354.128C251.661 347.55 254.625 341.074 258.826 336.468V336.458C258.852 336.437 258.876 336.413 258.897 336.387C258.913 336.38 258.926 336.369 258.938 336.357L287.801 321.025L289.04 355.876L289.922 380.927L290.755 404.3Z" fill="#3F3D56"/>
<path d="M394.831 408.409L403.261 426.478L406.204 432.771L414.128 474.338L418.083 478.547L421.491 463.615L423.092 463.286L451.969 457.295L460.386 484.072C462.283 480.906 463.03 477.181 462.501 473.526C461.973 469.871 460.2 466.512 457.484 464.015C456.91 463.494 456.431 462.987 456.444 462.507C456.923 433.594 455.158 380.798 439.214 359.068C434.15 352.172 431.112 345.304 426.691 340.506C426.678 340.492 426.678 340.478 426.664 340.478L415.907 322.834L415.25 321.751L414.511 321.381L394.831 408.409Z" fill="#3F3D56"/>
<path d="M343.761 277.841C365.654 277.841 383.402 260.062 383.402 238.131C383.402 216.199 365.654 198.42 343.761 198.42C321.867 198.42 304.119 216.199 304.119 238.131C304.119 260.062 321.867 277.841 343.761 277.841Z" fill="#FFB6B6"/>
<path d="M397.34 210.394C397.033 210.065 396.663 209.802 396.252 209.619C395.84 209.437 395.397 209.34 394.947 209.333L395.543 207.676C395.738 207.154 395.79 206.589 395.695 206.04C395.6 205.491 395.362 204.977 395.003 204.551C394.645 204.124 394.179 203.801 393.655 203.614C393.131 203.428 392.567 203.384 392.02 203.487L389.849 203.906L390.054 202.453C390.133 201.912 390.069 201.36 389.87 200.851C389.671 200.342 389.343 199.894 388.918 199.55C388.494 199.207 387.987 198.98 387.448 198.892C386.91 198.804 386.357 198.858 385.846 199.049C385.381 199.232 384.88 199.309 384.382 199.274C383.883 199.238 383.398 199.091 382.963 198.844C382.527 198.604 382.148 198.272 381.853 197.87C381.558 197.468 381.354 197.007 381.255 196.518L380.499 192.864L380.419 192.668C376.736 186.518 369.654 182.045 360.989 180.405C353.276 178.934 345.367 179.683 337.742 180.387C334.717 180.672 331.301 180.993 328.454 182.74C326.034 184.237 323.988 187.231 324.406 190.253C316.889 187.944 308.828 192.552 304.834 198.363C300.101 205.278 299.327 213.941 299.202 220.714C298.864 236.738 302.165 249.848 308.989 259.687C309.487 260.4 309.611 261.888 310.599 262.387L310.394 262.057C311.497 262.61 312.618 263.501 312.2 264.454C310.999 267.199 318.979 273.269 324.602 275.274C334.86 278.937 348.498 278.625 358.089 277.306L358.427 275.033C361.888 274.561 364.325 273.661 365.01 272.253C366.22 271.219 367.252 270.292 368.151 269.436L368.16 269.427C368.177 269.41 368.213 269.383 368.231 269.365C372.563 265.203 373.569 262.833 374.022 259.223C374.458 255.685 373.684 252.094 372.893 248.858C389.565 251.443 366.327 231.07 381.86 227.131C382.038 227.076 382.22 227.031 382.403 226.997C382.857 226.89 383.31 226.783 383.746 226.658C385.848 226.087 387.86 225.226 389.725 224.101C394.066 221.454 395.499 217.942 397.741 213.986C398.064 213.422 398.2 212.77 398.128 212.124C398.056 211.478 397.78 210.872 397.34 210.394Z" fill="#2F2E41"/>
<path d="M483.967 411.236C483.958 412.796 483.94 414.979 483.869 417.679C483.86 418.054 483.851 418.437 483.842 418.829C483.727 423.793 483.611 427.955 483.424 432.58C483.415 432.901 483.406 433.213 483.389 433.534C483.139 439.986 482.748 447.499 482.072 459.397C480.818 481.374 478.629 462.418 476.431 470.127C476.325 470.51 476.209 470.965 476.102 471.499C475.77 473.439 475.208 475.333 474.43 477.141C473.264 477.836 472.063 478.504 470.88 479.173C467.508 481.053 464.083 482.862 460.631 484.582C458.692 485.545 456.743 486.489 454.786 487.398C454.475 487.541 454.172 487.684 453.87 487.817C443.847 492.461 433.518 496.41 422.954 499.635C420.89 500.259 418.835 500.865 416.753 501.426C414.583 502.032 412.412 502.602 410.214 503.137C393.867 507.157 377.139 509.425 360.313 509.901C358.045 509.973 355.758 509.999 353.463 509.999C352.324 509.999 351.203 509.991 350.065 509.982C349.718 509.982 349.371 509.973 349.024 509.964C348.018 509.937 346.977 509.919 345.928 509.892C325.625 509.258 305.487 506.014 286.009 500.241L285.182 500C283.901 499.608 282.629 499.225 281.356 498.815C275.485 496.952 269.699 494.867 263.999 492.559C259.649 490.803 255.349 488.919 251.099 486.908C251.06 486.898 251.024 486.88 250.992 486.855C250.103 486.445 249.204 486.017 248.315 485.58C248.199 485.518 248.074 485.456 247.95 485.393C244.631 483.771 241.348 482.072 238.101 480.296C235.37 474.012 231.527 472.809 229.142 467.284C228.448 465.642 227.947 463.926 227.648 462.168C227.648 462.151 227.639 462.133 227.639 462.106C227.888 465.421 226.58 456.224 227.63 462.07C227.621 461.963 227.612 461.847 227.603 461.714C227.577 461.393 227.541 461.001 227.488 460.511C224.436 430.664 224.632 396.531 223.306 368.404C223.217 366.586 223.125 364.846 223.031 363.182C223.004 362.629 222.968 362.086 222.933 361.551C222.995 361.391 223.066 361.221 223.146 361.061C223.163 361.015 223.184 360.97 223.208 360.927C223.235 360.872 223.264 360.818 223.297 360.767C223.315 360.74 223.342 360.704 223.36 360.678C223.373 360.647 223.388 360.617 223.404 360.589C223.484 360.464 223.573 360.33 223.671 360.205C223.716 360.152 223.751 360.107 223.796 360.063C223.826 360.017 223.862 359.975 223.902 359.938C223.93 359.895 223.963 359.856 224 359.822C224.036 359.787 224.071 359.742 224.116 359.697C224.135 359.669 224.159 359.645 224.187 359.626C224.257 359.545 224.335 359.471 224.418 359.403C224.736 359.111 225.075 358.843 225.433 358.601C225.557 358.521 225.691 358.441 225.815 358.352C226.712 357.814 227.656 357.361 228.635 356.997C228.973 356.872 229.311 356.756 229.676 356.632C229.81 356.596 229.934 356.551 230.068 356.507C230.263 356.445 230.459 356.382 230.664 356.338C231.678 356.035 232.772 355.776 233.955 355.535C234.098 355.509 234.249 355.482 234.4 355.446C234.614 355.402 234.836 355.366 235.059 355.331C235.361 355.277 235.672 355.224 235.984 355.17C238.626 354.751 241.624 354.439 244.934 354.234C245.245 354.217 245.557 354.199 245.868 354.181C246.233 354.163 246.597 354.145 246.971 354.127C247.283 354.11 247.603 354.101 247.923 354.092C248.234 354.074 248.555 354.065 248.884 354.056C249.782 354.029 250.708 354.003 251.651 353.985C254.338 353.931 257.167 353.949 260.138 354.012C261.517 354.047 262.923 354.083 264.364 354.145C264.462 354.145 264.551 354.154 264.64 354.154C265.894 354.199 267.157 354.252 268.456 354.323C269.364 354.368 270.28 354.413 271.196 354.466C272.059 354.52 272.931 354.573 273.812 354.635C274.497 354.671 275.182 354.724 275.876 354.769C276.463 354.814 277.05 354.858 277.638 354.894L278.438 354.947C278.874 354.983 279.31 355.01 279.755 355.054C280.734 355.134 281.712 355.215 282.709 355.295C283.696 355.384 284.701 355.473 285.707 355.562C286.712 355.651 287.726 355.749 288.741 355.847C288.847 355.856 288.945 355.865 289.043 355.874C289.968 355.972 290.894 356.061 291.828 356.159C292.041 356.177 292.264 356.195 292.477 356.222C293.368 356.311 294.276 356.416 295.174 356.512C295.45 356.542 295.725 356.571 296.001 356.601C296.705 356.678 297.4 356.744 298.109 356.828C299.043 356.935 299.995 357.033 300.92 357.157C301.64 357.238 302.361 357.318 303.082 357.407C304.212 357.541 305.359 357.683 306.507 357.835C306.943 357.888 307.379 357.942 307.815 358.004C311.089 358.414 314.398 358.869 317.761 359.341C322.859 360.063 328.037 360.847 333.25 361.694C338.472 362.54 343.724 363.435 349.006 364.376C350.34 364.617 351.675 364.857 353.018 365.107C353.623 365.223 354.228 365.339 354.833 365.455C355.865 365.642 356.897 365.838 357.929 366.034C358.961 366.23 359.993 366.426 361.025 366.631C362.253 366.872 363.489 367.112 364.717 367.353C372.804 368.957 380.847 370.668 388.693 372.459C389.983 372.754 391.273 373.057 392.555 373.351C395.117 373.948 397.655 374.554 400.17 375.169C400.864 375.329 401.549 375.498 402.234 375.668C403.942 376.096 405.65 376.523 407.332 376.96L407.625 377.04C408.862 377.343 410.072 377.655 411.282 377.976C414.138 378.725 416.946 379.482 419.707 380.249C421.54 380.757 423.352 381.271 425.143 381.79C427.821 382.566 430.445 383.35 432.998 384.143C433.63 384.339 434.262 384.535 434.884 384.722C436.753 385.302 438.594 385.89 440.382 386.478C441.806 386.942 443.194 387.414 444.564 387.886C445.934 388.359 447.277 388.831 448.594 389.303C449.439 389.606 450.275 389.927 451.112 390.23C452.313 390.676 453.496 391.121 454.653 391.567C455.008 391.701 455.355 391.843 455.702 391.977C455.925 392.075 456.138 392.155 456.352 392.244C456.77 392.414 457.197 392.574 457.606 392.743C458.024 392.904 458.434 393.073 458.843 393.251C459.243 393.412 459.652 393.581 460.044 393.75C460.444 393.911 460.836 394.08 461.227 394.258C461.556 394.392 461.877 394.535 462.188 394.677C462.82 394.954 463.451 395.23 464.065 395.515C464.368 395.658 464.67 395.791 464.973 395.934L465.667 396.255C465.764 396.308 465.862 396.353 465.96 396.397C466.183 396.504 466.414 396.62 466.636 396.727C467.152 396.968 467.659 397.226 468.158 397.467C468.825 397.805 469.474 398.144 470.097 398.474C470.729 398.812 471.343 399.151 471.93 399.481C472.028 399.534 472.117 399.588 472.214 399.641C472.348 399.713 472.481 399.793 472.615 399.864C473.069 400.123 473.504 400.39 473.94 400.648C474.794 401.174 475.604 401.691 476.36 402.208C476.529 402.324 476.689 402.44 476.858 402.547C477.419 402.948 477.953 403.34 478.451 403.741C478.451 403.75 478.451 403.75 478.46 403.75C478.629 403.874 478.789 404.008 478.949 404.133C479.083 404.258 479.225 404.365 479.358 404.489C479.821 404.89 480.248 405.274 480.639 405.666C480.771 405.787 480.895 405.915 481.013 406.049C481.065 406.092 481.113 406.14 481.155 406.192C481.333 406.37 481.494 406.548 481.645 406.726C481.668 406.751 481.689 406.778 481.707 406.807C481.921 407.056 482.116 407.306 482.303 407.555C482.392 407.68 482.49 407.805 482.57 407.929C482.677 408.081 482.784 408.241 482.873 408.393C482.953 408.518 483.024 408.651 483.095 408.776C483.284 409.097 483.445 409.434 483.575 409.783C483.675 410.02 483.756 410.264 483.816 410.514C483.883 410.751 483.934 410.992 483.967 411.236Z" fill="#2F2E41"/>
<path opacity="0.2" d="M483.967 411.235C483.958 412.795 483.94 414.978 483.869 417.678C483.86 418.053 483.842 418.436 483.834 418.828C483.745 422.616 483.611 427.294 483.424 432.579C483.415 432.9 483.407 433.212 483.389 433.533C483.14 439.985 482.748 447.498 482.072 459.396C480.818 481.373 478.629 462.417 476.432 470.126C470.329 466.365 463.638 462.426 456.486 458.38C455.196 457.649 453.894 456.915 452.58 456.178C438.274 448.184 422.296 439.807 405.615 431.51C404.957 431.18 404.289 430.85 403.631 430.53C365.42 411.609 323.713 393.206 289.924 380.925C283.403 378.554 277.175 376.415 271.321 374.535C258.991 370.587 248.332 367.824 240.13 366.63C231.589 365.382 225.691 365.828 223.306 368.403C223.217 366.585 223.125 364.845 223.031 363.181C222.995 362.628 222.959 362.085 222.924 361.55C222.979 361.403 223.05 361.263 223.119 361.122C223.129 361.102 223.136 361.08 223.146 361.06C223.163 361.014 223.184 360.969 223.209 360.926C223.235 360.871 223.264 360.817 223.297 360.766C223.326 360.703 223.362 360.643 223.404 360.588C223.484 360.463 223.573 360.329 223.671 360.204C223.743 360.111 223.82 360.022 223.902 359.937C223.93 359.894 223.963 359.855 224 359.821C224.036 359.785 224.071 359.741 224.116 359.696C224.135 359.668 224.159 359.644 224.187 359.625C224.258 359.544 224.335 359.47 224.418 359.402C224.736 359.11 225.075 358.842 225.433 358.6C225.557 358.52 225.691 358.44 225.815 358.351C226.712 357.813 227.656 357.36 228.635 356.996C228.974 356.871 229.312 356.755 229.676 356.631C229.81 356.595 229.934 356.55 230.068 356.506C230.263 356.443 230.459 356.381 230.664 356.337C231.678 356.034 232.772 355.775 233.956 355.534C234.311 355.463 234.685 355.392 235.059 355.329C235.361 355.276 235.673 355.223 235.984 355.169C238.626 354.75 241.624 354.438 244.934 354.233C245.245 354.215 245.557 354.198 245.868 354.18C246.233 354.162 246.598 354.144 246.971 354.126C247.283 354.108 247.603 354.1 247.923 354.091C248.235 354.073 248.555 354.064 248.884 354.055C249.783 354.028 250.708 354.002 251.651 353.984C254.338 353.939 257.167 353.957 260.138 354.019C261.517 354.046 262.923 354.091 264.364 354.153C264.453 354.153 264.551 354.162 264.64 354.162C265.894 354.198 267.167 354.26 268.457 354.322C269.364 354.367 270.28 354.412 271.197 354.465C272.06 354.518 272.931 354.572 273.812 354.634C274.497 354.67 275.182 354.723 275.876 354.768C276.463 354.813 277.051 354.857 277.638 354.893C278.341 354.946 279.043 355 279.755 355.053C280.734 355.133 281.712 355.214 282.709 355.294C283.696 355.383 284.702 355.472 285.707 355.561C286.712 355.65 287.726 355.748 288.741 355.846C288.847 355.855 288.945 355.864 289.043 355.873C289.968 355.971 290.894 356.06 291.828 356.158C297.006 356.684 302.335 357.299 307.815 358.003C311.089 358.422 314.404 358.87 317.761 359.349C322.859 360.071 328.037 360.855 333.25 361.693C338.473 362.539 343.724 363.433 349.006 364.375C350.34 364.616 351.675 364.856 353.018 365.106C354.655 365.409 356.292 365.718 357.929 366.033C358.961 366.229 359.993 366.425 361.025 366.63C362.253 366.871 363.49 367.111 364.717 367.352C372.804 368.956 380.847 370.667 388.694 372.458C389.984 372.752 391.274 373.056 392.555 373.35C395.117 373.947 397.655 374.553 400.17 375.168C400.864 375.337 401.549 375.506 402.234 375.676C403.951 376.103 405.65 376.531 407.332 376.959V376.968C407.43 376.986 407.528 377.013 407.626 377.039C408.853 377.351 410.072 377.663 411.282 377.984C414.138 378.733 416.946 379.487 419.707 380.248C421.54 380.764 423.355 381.273 425.143 381.789C427.821 382.574 430.445 383.358 432.999 384.142C433.63 384.338 434.262 384.534 434.885 384.721C436.753 385.31 438.586 385.895 440.383 386.477C441.806 386.941 443.194 387.413 444.564 387.885C445.934 388.358 447.278 388.83 448.594 389.302C449.448 389.605 450.285 389.917 451.112 390.22C452.322 390.666 453.496 391.111 454.653 391.566C455.009 391.7 455.356 391.842 455.703 391.976C456.352 392.225 456.984 392.484 457.606 392.742C458.025 392.903 458.434 393.072 458.843 393.25C459.243 393.411 459.653 393.58 460.044 393.749C460.444 393.91 460.836 394.079 461.227 394.257C461.557 394.391 461.877 394.534 462.188 394.676C462.82 394.952 463.451 395.229 464.065 395.514C464.368 395.657 464.67 395.79 464.973 395.933L465.667 396.254C465.765 396.307 465.862 396.352 465.96 396.396C466.717 396.753 467.446 397.109 468.158 397.466C468.825 397.804 469.475 398.143 470.097 398.473C470.836 398.865 471.538 399.248 472.215 399.64C472.348 399.712 472.482 399.792 472.615 399.863C473.069 400.122 473.505 400.389 473.941 400.647C474.795 401.173 475.604 401.69 476.36 402.207C477.108 402.724 477.802 403.232 478.451 403.74C478.451 403.749 478.451 403.749 478.46 403.749C478.771 403.998 479.074 404.248 479.359 404.488C479.821 404.889 480.248 405.273 480.64 405.665C480.771 405.786 480.896 405.914 481.013 406.048C481.065 406.091 481.113 406.139 481.156 406.191C481.343 406.396 481.529 406.601 481.707 406.806C481.921 407.055 482.117 407.305 482.303 407.554C482.392 407.679 482.49 407.804 482.57 407.928C482.677 408.08 482.784 408.24 482.873 408.392C482.953 408.517 483.024 408.65 483.095 408.775C483.284 409.096 483.445 409.433 483.576 409.782C483.673 410.02 483.753 410.264 483.816 410.513C483.883 410.75 483.934 410.991 483.967 411.235Z" fill="black"/>
</g>
<defs>
<clipPath id="clip0_1310_1755">
<rect width="700" height="510" fill="white"/>
</clipPath>
<clipPath id="clip1_1310_1755">
<rect width="44.5293" height="44.5804" fill="white" transform="translate(189.694 198.828)"/>
</clipPath>
</defs>
</svg>
